<svg width="136" height="90" fill="none" xmlns="http://www.w3.org/2000/svg"><g clip-path="url(#clip0)"><path d="M58.065 88.868l.047-27.8-.047 27.8z" fill="#FBF6F6"/><path d="M58.065 88.868l.047-27.8" stroke="#302D42" stroke-width="5.887"/><path d="M125.579 89.324c-6.36 0-10.132-3.163-10.421-7.72h6.082c0 1.52.865 3.54 4.628 3.666 2.608 0 4.051-1.518 4.051-2.66-.289-1.77-2.608-1.895-4.917-2.282-2.608-.368-4.628-.88-6.081-1.51-2.021-1.015-3.186-3.172-3.186-5.445 0-4.053 3.484-7.217 9.556-7.217 5.792 0 9.555 2.913 9.833 7.343h-5.782c0-1.133-.289-3.038-3.763-3.038-2.319 0-3.762.377-4.051 2.022 0 2.283 4.917 2.157 8.68 3.037 3.473.89 5.792 3.038 5.792 6.085 0 5.572-4.628 7.719-10.421 7.719zM14.761 51.942l19.966-11.27 10.71 17.858H18.524M5.495 77.716c0 3.54 3.184 6.452 6.648 6.452 3.772 0 6.659-2.912 6.659-6.452 0-3.414-2.887-6.452-6.66-6.452-3.463 0-6.647 3.038-6.647 6.452zm6.36 11.647C5.494 89.363 0 84.168 0 77.716s5.495-11.52 11.854-11.52c2.608 0 4.927.638 6.948 2.02v-1.77h5.792V88.85h-5.792v-1.393c-1.732 1.267-4.34 1.906-6.947 1.906zm77.279-30.839l-27.78-47.089L81.32.04l34.727 58.484H89.134zM32.119 77.716c0 3.54 2.897 6.452 6.659 6.452 3.463 0 6.658-2.912 6.658-6.452 0-3.414-3.195-6.452-6.658-6.452-3.763 0-6.659 3.038-6.659 6.452zm6.37 11.647c-6.659 0-11.864-5.195-11.864-11.647s5.205-11.52 11.864-11.52c2.598 0 4.917.638 6.947 2.02v-9.489h5.783V88.85h-5.783v-1.393c-2.03 1.267-4.35 1.906-6.948 1.906zm-.285-57.548l20.254-11.134 22.286 37.842H53.83L38.204 31.815zm94.044 32.455c-1.453 0-2.896-1.267-2.896-2.786 0-1.519 1.443-2.786 2.896-2.786 1.731 0 2.897 1.268 2.897 2.786s-1.166 2.786-2.897 2.786zm0-5.184c-1.453 0-2.319 1.131-2.319 2.398 0 1.267.866 2.409 2.319 2.409 1.443 0 2.309-1.141 2.309-2.409 0-1.267-.866-2.398-2.309-2.398z" fill="#302D42"/><path d="M132.845 63.013l-.577-1.267h-.578v1.267h-.437v-3.038h1.303c.289 0 .866.388.866.89 0 .503-.289.755-.577.88l.577 1.268h-.577zm-.577-2.65h-.578v1.005h.578c.577 0 .577-.125.577-.503 0-.26 0-.502-.577-.502zm-38.24 17.353c0 3.54 2.896 6.452 6.658 6.452 3.474 0 6.649-2.912 6.649-6.452 0-3.414-3.175-6.452-6.649-6.452-3.762 0-6.658 3.038-6.658 6.452zm6.36 11.647c-6.649 0-11.855-5.195-11.855-11.647s5.206-11.52 11.855-11.52c2.608 0 4.926.638 6.947 2.021v-1.77h5.504V88.85h-5.503v-1.393c-2.022 1.267-4.34 1.906-6.948 1.906zM67.423 77.716c0 3.54 3.185 6.452 6.658 6.452 3.763 0 6.66-2.912 6.66-6.452 0-3.414-2.897-6.452-6.66-6.452-3.473 0-6.658 3.038-6.658 6.452zM80.74 58.728h5.783V88.85H80.74v-1.393c-1.742 1.267-4.06 1.906-6.659 1.906-6.658 0-12.152-5.195-12.152-11.647s5.494-11.52 12.152-11.52c2.598 0 4.917.638 6.66 2.021v-9.49z" fill="#302D42"/></g><defs><clipPath id="clip0"><path fill="#fff" d="M0 0h136v89.403H0z"/></clipPath></defs></svg>