<svg width="100" height="100" fill="none" xmlns="http://www.w3.org/2000/svg"><path d="M0 30.276A30.373 30.373 0 018.87 8.883 30.242 30.242 0 0130.22 0h69.767v15.39H30.238a14.91 14.91 0 00-10.488 4.378 14.975 14.975 0 00-4.375 10.508l-.091 25.835a15.067 15.067 0 01-3.992 8.848 15.011 15.011 0 01-8.551 4.564L0 69.945v-39.67zM.004 100V84.61H69.77a14.921 14.921 0 0010.489-4.384 14.987 14.987 0 004.374-10.511V45.198c.02-3.557 1.3-6.992 3.612-9.69a14.955 14.955 0 019.013-5.04l2.74-.413v39.66a30.382 30.382 0 01-8.87 21.396A30.252 30.252 0 0169.78 100H.005z" fill="#E30613"/><path d="M59.107 70V50.105L50.008 60.99l-9.09-10.885v19.893h-12.05V30.853h11.41l9.73 12.588 9.73-12.589h11.41V70H59.106z" fill="#E30613"/></svg>