<svg width="99" height="79" fill="none" xmlns="http://www.w3.org/2000/svg"><path d="M65.059 5.644c7.809 0 14.14 32.842 14.14 73.356h11.316c0-43.631-11.399-79-25.456-79-7.998 0-15.134 10.63-19.8 27.252C40.593 10.63 33.454 0 25.456 0 11.4 0 0 35.369 0 79h11.317c0-40.514 6.332-73.356 14.14-73.356 7.811 0 14.145 30.316 14.145 67.715h11.313c0-37.399 6.332-67.715 14.144-67.715zm31.12 67.715c1.534 0 2.821 1.213 2.821 2.807A2.807 2.807 0 0196.179 79a2.817 2.817 0 01-2.838-2.833c0-1.594 1.297-2.807 2.838-2.807zm0 5.229c1.3 0 2.309-1.042 2.309-2.42 0-1.355-1.01-2.396-2.31-2.396-1.315 0-2.324 1.04-2.324 2.395 0 1.378 1.009 2.42 2.325 2.42zm-1.1-4.06h1.274c.78 0 1.148.31 1.148.942 0 .596-.373.845-.861.897l.938 1.457h-.55l-.895-1.418h-.54v1.418h-.514v-3.296zm.513 1.465h.534c.45 0 .865-.023.865-.545 0-.438-.376-.507-.722-.507h-.676l-.001 1.052z" fill="#FFC300"/></svg>