<svg width="200" height="60" fill="none" xmlns="http://www.w3.org/2000/svg"><path d="M169.296 43.078c2.414 0 4.436 2.057 4.436 4.585 0 2.527-1.965 4.584-4.436 4.584h.057l-1.684.06h-2.36l-28.807.058a.698.698 0 01-.674-.882l1.178-4.879h-1.123l-2.863 5.526c-.057.176-.393.352-.561.352l-42.509.059c-.393 0-.675-.353-.618-.764l.392-4.114c-4.323 3.879-10.276 4.76-13.814 4.76H58.502c-.505 0-.786-.411-.618-.94l.618-1.94c-2.863 2.234-6.682 3.88-11.848 3.88-6.064 0-9.658-2.352-11.174-5.996-3.706 3.762-9.378 5.937-15.05 5.937-1.74 0-3.482-.177-5.11-.588l-2.078 6.7c-.226.647-.843.705-1.18.118L.102 39.375c-.227-.353-.058-.823.336-1L17.79 30.91c-.056-.117-.113-.292-.169-.41-.899-2.41-1.066-6.466-.505-9.052.899-3.997 5.67-13.93 18.42-13.342 2.582.117 5.952 1.234 8.198 2.527l.673-1.705c.113-.235.394-.47.675-.47l40.655-.117c2.752 0 5.729.646 7.974 2.234l.169-1.47c0-.353.336-.588.617-.588h72.383c.338 0 .618.294.675.647l.899 7.464c2.863-3.232 5.165-5.23 8.085-6.759 2.303-1.234 5.167-1.47 7.076-1.528h.955l2.414-7.817c.169-.647.843-.705 1.179-.117l11.736 19.866c.225.412.056.823-.337 1l-20.384 8.58c-.618.294-1.067-.176-.898-.822l.617-2c-1.403 1.47-2.862 3.234-4.324 5.232-1.964 2.704-4.435 8.112-5.11 10.168l-.168.53" fill="#005543"/><path d="M184.401 19.92l-1.347 4.584 12.41-5.23-7.075-11.992-1.404 4.585s-5.784-.587-8.928 1.058c-2.639 1.411-4.718 3.175-7.693 6.583-1.517 1.705-4.212 5.878-4.212 5.878l-1.684-13.52h-9.042l3.088 21.102-5.391 16.105h10.671s2.358-7.054 2.582-7.758c.73-2.292 3.369-8.11 5.559-11.11 3.875-5.29 8.592-10.403 12.466-10.285z" fill="#FFF200"/><path d="M61.2 12.22l-7.47 23.394c-.338.94-.675 2.174-1.292 3.232-.56 1-1.404 1.762-2.808 1.762-1.292 0-1.628-.763-1.628-1.82.056-1 .506-2.235.842-3.234l7.47-23.334H46.71l-7.805 24.275c-1.404 4.466-3.37 13.459 7.748 13.459 11.12 0 14.936-8.992 16.398-13.46l7.75-24.274h-9.603z" fill="#fff"/><path d="M117.971 49.073l18.981-37.147h-9.322l-10.39 23.041 3.818-23.041h-8.255s-9.546 20.454-10.669 23.217l4.212-23.217h-9.49l-3.932 37.147h9.322l10.276-23.216c-.505 2.527-3.874 23.216-3.874 23.216h9.323zm19.767-13.577h4.829l2.134-13.578-6.963 13.578zm3.312-23.57h13.085l-4.212 37.206h-10.109l1.292-5.996h-7.131l-3.089 5.878h-8.928l19.092-37.088z" fill="#FFF200"/><path d="M11.839 52.717L4.538 40.316l12.86-5.525-1.405 4.643c1.574 1.057 3.426 1.351 5.167 1.234 1.516-.118 3.313-.822 3.875-2.175.337-.882-.113-2.88-1.348-4.172-1.404-1.529-2.414-3.528-2.976-5.055-.617-1.764-.843-5.055-.392-7.054.729-3.056 4.492-11.167 15.049-10.637 2.302.057 5.672 1.292 7.355 2.409l-3.93 7.817c-4.437-2.762-7.131-1.763-8.143.764-1.01 2.528.675 4.938 2.246 6.877 1.966 2.351 3.538 4.88 3.538 7.877 0 6.994-7.188 12.636-16.004 12.636-2.639 0-5.11-.528-7.244-1.41l-1.347 4.172zm50.314-3.526H75.91c4.83 0 12.691-1.705 15.107-9.346 1.404-4.408-1.124-8.582-3.707-9.991 2.752-1.059 5.447-4.644 6.234-7.466 2.19-8.052-2.415-10.344-7.807-10.344H74.001L62.153 49.19zm14.712-14.812c3.37-.176 5.392 1.175 4.83 3.585-.505 2.352-2.359 3.174-4.38 3.174h-2.64l2.19-6.759zm1.798-7.818l2.133-6.465h1.627c1.348 0 3.82.236 2.64 3.41-1.01 2.527-3.594 3.055-5.053 3.055h-1.347z" fill="#fff"/><path d="M168.903 47.486v-.647h.392c.226 0 .449.059.449.294 0 .353-.224.353-.449.353h-.392zm0 .294h.337l.56.882h.338l-.561-.882c.281-.059.505-.235.505-.588 0-.47-.224-.647-.729-.647h-.73v2.116h.281v-.882h-.001zm.393 1.705c.954 0 1.741-.823 1.741-1.882 0-1.057-.787-1.822-1.741-1.822-1.01 0-1.797.765-1.797 1.822 0 1.059.786 1.882 1.797 1.882zm-1.46-1.882c0-.881.618-1.528 1.46-1.528.786 0 1.404.647 1.404 1.528 0 .883-.618 1.588-1.404 1.588-.842 0-1.46-.706-1.46-1.588z" fill="#FFF200"/></svg>