<svg width="136" height="90" viewBox="0 0 136 90" fill="none" xmlns="http://www.w3.org/2000/svg">
<g clip-path="url(#clip0)">
<path d="M58.0649 88.8678L58.1116 61.0688L58.0649 88.8678Z" fill="#FBF6F6"/>
<path d="M58.0649 88.8678L58.1116 61.0688" stroke="#302D42" stroke-width="5.88745"/>
<path d="M125.579 89.324C119.219 89.324 115.447 86.1605 115.158 81.6048H121.24C121.24 83.1235 122.105 85.1449 125.868 85.2705C128.476 85.2705 129.919 83.7522 129.919 82.6106C129.63 80.8403 127.311 80.7148 125.002 80.3279C122.394 79.9605 120.374 79.4476 118.921 78.8189C116.9 77.8033 115.735 75.6462 115.735 73.3732C115.735 69.3197 119.219 66.1563 125.291 66.1563C131.083 66.1563 134.846 69.0686 135.124 73.4987H129.342C129.342 72.3664 129.053 70.4613 125.579 70.4613C123.26 70.4613 121.817 70.8384 121.528 72.4827C121.528 74.7659 126.445 74.6399 130.208 75.5202C133.681 76.4102 136 78.5576 136 81.6048C136 87.1765 131.372 89.324 125.579 89.324ZM14.7613 51.9419L34.7275 40.6724L45.4368 58.5296H18.5236" fill="#302D42"/>
<path d="M5.49453 77.7161C5.49453 81.2563 8.67927 84.1682 12.1428 84.1682C15.9151 84.1682 18.8015 81.2563 18.8015 77.7161C18.8015 74.3015 15.9151 71.2641 12.1428 71.2641C8.67927 71.2641 5.49453 74.3015 5.49453 77.7161ZM11.8545 89.3627C5.49407 89.3627 0 84.1682 0 77.7161C0 71.2641 5.49453 66.1955 11.8545 66.1955C14.4621 66.1955 16.781 66.8339 18.8015 68.2169V66.4466H24.5944V88.8499H18.802V87.4572C17.0702 88.7243 14.4626 89.3627 11.8549 89.3627H11.8545ZM89.1338 58.5243L61.3547 11.4351L81.3204 0.0400391L116.047 58.5243H89.1338ZM32.119 77.7161C32.119 81.2563 35.0158 84.1682 38.7777 84.1682C42.2412 84.1682 45.4364 81.2563 45.4364 77.7161C45.4364 74.3015 42.2412 71.2641 38.7777 71.2641C35.0154 71.2641 32.119 74.3015 32.119 77.7161ZM38.4889 89.3627C31.8302 89.3627 26.6249 84.1682 26.6249 77.7161C26.6249 71.2641 31.8302 66.1955 38.4889 66.1955C41.0866 66.1955 43.4059 66.8339 45.4364 68.2169V58.7274H51.2192V88.8499H45.4359V87.4572C43.4054 88.7243 41.0866 89.3627 38.4884 89.3627H38.4889ZM38.2037 31.8152L58.4582 20.6814L80.7437 58.523H59.6134H53.8301L38.2037 31.8152ZM132.248 64.2701C130.795 64.2701 129.352 63.003 129.352 61.4842C129.352 59.9655 130.795 58.6984 132.248 58.6984C133.979 58.6984 135.145 59.9659 135.145 61.4842C135.145 63.0025 133.979 64.2705 132.248 64.2705V64.2701ZM132.248 59.0857C130.795 59.0857 129.929 60.2171 129.929 61.4842C129.929 62.7514 130.795 63.893 132.248 63.893C133.691 63.893 134.557 62.7518 134.557 61.4842C134.557 60.2166 133.691 59.0857 132.248 59.0857Z" fill="#302D42"/>
<path d="M132.845 63.0127L132.268 61.7456H131.69V63.0127H131.253V59.9753H132.556C132.845 59.9753 133.422 60.3626 133.422 60.8653C133.422 61.368 133.133 61.62 132.845 61.7456L133.422 63.0127H132.845ZM132.268 60.3626H131.69V61.3685H132.268C132.845 61.3685 132.845 61.2429 132.845 60.8653C132.845 60.6045 132.845 60.3626 132.268 60.3626ZM94.0276 77.7162C94.0276 81.2564 96.9245 84.1683 100.686 84.1683C104.16 84.1683 107.335 81.2564 107.335 77.7162C107.335 74.3016 104.16 71.2642 100.686 71.2642C96.924 71.2642 94.0276 74.3016 94.0276 77.7162ZM100.388 89.3629C93.7393 89.3629 88.5335 84.1683 88.5335 77.7162C88.5335 71.2642 93.7393 66.1956 100.388 66.1956C102.996 66.1956 105.314 66.834 107.335 68.217V66.4467H112.839V88.85H107.336V87.4573C105.314 88.7244 102.996 89.3629 100.388 89.3629H100.388ZM67.4231 77.7162C67.4231 81.2564 70.6079 84.1683 74.0814 84.1683C77.8441 84.1683 80.7401 81.2564 80.7401 77.7162C80.7401 74.3016 77.8437 71.2642 74.0814 71.2642C70.6079 71.2642 67.4231 74.3016 67.4231 77.7162ZM80.7401 58.7275H86.5229V88.85H80.7401V87.4573C78.9983 88.7244 76.6795 89.3629 74.0814 89.3629C67.4231 89.3629 61.9286 84.1683 61.9286 77.7162C61.9286 71.2642 67.4231 66.1956 74.0814 66.1956C76.679 66.1956 78.9983 66.834 80.7401 68.217V58.7275Z" fill="#302D42"/>
</g>
<defs>
<clipPath id="clip0">
<rect width="136" height="89.403" fill="white"/>
</clipPath>
</defs>
</svg>
