<svg width="100" height="100" viewBox="0 0 100 100" fill="none" xmlns="http://www.w3.org/2000/svg">
<path d="M0 30.2757C0.0169035 22.2497 3.20651 14.5574 8.87044 8.88304C14.5344 3.20863 22.2111 0.0145132 30.2199 0H99.9872V15.3896H30.2382C26.3029 15.4064 22.5335 16.9799 19.75 19.7677C16.9665 22.5555 15.3941 26.332 15.3749 30.2757L15.2835 56.1113C14.9651 59.4213 13.5617 62.5324 11.2925 64.9592C9.0233 67.3856 6.01614 68.9903 2.74062 69.5235L0 69.9445V30.2757Z" fill="#E30613"/>
<path d="M0.00372314 99.9998V84.6098H69.7707C73.707 84.5908 77.4762 83.015 80.2597 80.2261C83.0426 77.4366 84.6149 73.6592 84.6342 69.715V45.1976C84.6534 41.6406 85.9338 38.2063 88.2465 35.508C90.5591 32.8097 93.7535 31.023 97.2591 30.4672L99.9998 30.0552V69.715C99.9827 77.7419 96.7937 85.435 91.1297 91.1109C85.4662 96.7867 77.7896 99.9825 69.7798 99.9998H0.00372314Z" fill="#E30613"/>
<path d="M59.1069 69.9993V50.1056L50.008 60.9909L40.9183 50.1056V69.9993H28.8686V30.8525H40.2788L50.008 43.4407L59.7373 30.8525H71.1474V69.9993H59.1069Z" fill="#E30613"/>
</svg>
