<svg width="99" height="79" viewBox="0 0 99 79" fill="none" xmlns="http://www.w3.org/2000/svg">
<path d="M65.0586 5.64369C72.8679 5.64369 79.1996 38.4863 79.1996 79H90.515C90.515 35.3688 79.1163 0 65.0589 0C57.0605 0 49.9245 10.6297 45.2585 27.2516C40.5935 10.6297 33.4552 0 25.4574 0C11.4001 0 0 35.3688 0 79H11.3167C11.3167 38.4863 17.6491 5.64369 25.4574 5.64369C33.2681 5.64369 39.6021 35.96 39.6021 73.3593H50.9148C50.9152 35.96 57.2472 5.64369 65.0586 5.64369ZM96.1787 73.3593C97.7135 73.3593 99 74.5715 99 76.1663C99 77.7865 97.7135 78.9993 96.1787 78.9993C94.6385 78.9993 93.3413 77.7858 93.3413 76.1663C93.3413 74.5715 94.6385 73.3593 96.1787 73.3593ZM96.1787 78.5877C97.4786 78.5877 98.4879 77.5458 98.4879 76.1673C98.4879 74.8129 97.4779 73.7723 96.1787 73.7723C94.8627 73.7723 93.8544 74.8129 93.8544 76.1673C93.854 77.5454 94.8627 78.5877 96.1787 78.5877ZM95.0786 74.5284H96.3534C97.1335 74.5284 97.5013 74.8383 97.5013 75.4699C97.5013 76.0658 97.1285 76.3149 96.6399 76.3666L97.5783 77.8245H97.0274L96.1332 76.4063H95.5923V77.8245H95.0793L95.0786 74.5284ZM95.592 75.9927H96.1265C96.5766 75.9927 96.9913 75.9703 96.9913 75.4479C96.9913 75.0095 96.6151 74.9407 96.2694 74.9407H95.5927L95.592 75.9927Z" fill="#FFC300"/>
</svg>
