<svg width="200" height="60" viewBox="0 0 200 60" fill="none" xmlns="http://www.w3.org/2000/svg">
<path d="M169.296 43.0782C171.71 43.0782 173.732 45.1347 173.732 47.6628C173.732 50.1896 171.767 52.2471 169.296 52.2471H169.353L167.669 52.3061H165.309L136.502 52.3647C136.053 52.3647 135.716 51.9536 135.828 51.4831L137.006 46.6044H135.883L133.02 52.1296C132.963 52.3058 132.627 52.4823 132.459 52.4823L89.9501 52.5407C89.5566 52.5407 89.2749 52.188 89.3322 51.7766L89.7237 47.6625C85.4014 51.5415 79.448 52.4231 75.9097 52.4231H58.5022C57.997 52.4231 57.7162 52.0117 57.8843 51.4828L58.5022 49.5436C55.639 51.7766 51.8201 53.4228 46.6545 53.4228C40.5903 53.4228 36.9957 51.0712 35.4802 47.4271C31.7737 51.1888 26.1019 53.3639 20.4291 53.3639C18.6892 53.3639 16.9481 53.1874 15.3198 52.7761L13.2418 59.4769C13.0164 60.1226 12.3986 60.181 12.0623 59.5937L0.101689 39.3752C-0.124735 39.0222 0.0441765 38.5519 0.437959 38.3757L17.79 30.9105C17.7338 30.7932 17.6773 30.6178 17.6211 30.5003C16.7224 28.0897 16.5545 24.0343 17.1159 21.4475C18.0146 17.451 22.7869 7.51767 35.5351 8.10551C38.1185 8.22308 41.4879 9.34012 43.7338 10.6334L44.4071 8.92849C44.5198 8.69336 44.8006 8.45822 45.0822 8.45822L85.7374 8.34065C88.4889 8.34065 91.4656 8.98741 93.7107 10.5747L93.8796 9.10498C93.8796 8.75228 94.2159 8.51714 94.4967 8.51714H166.88C167.218 8.51714 167.498 8.8112 167.555 9.1639L168.454 16.628C171.317 13.3958 173.619 11.398 176.539 9.86931C178.842 8.63471 181.706 8.39957 183.615 8.34092H184.57L186.984 0.524115C187.153 -0.122645 187.827 -0.181294 188.163 0.406547L199.899 20.2732C200.124 20.6845 199.955 21.0961 199.562 21.2726L179.178 29.8538C178.56 30.1475 178.111 29.6773 178.28 29.0308L178.897 27.0319C177.494 28.5016 176.035 30.2651 174.573 32.263C172.609 34.9673 170.138 40.3749 169.463 42.4314L169.295 42.9603" fill="#005543"/>
<path d="M184.401 19.9199L183.054 24.5042L195.464 19.2731L188.389 7.28223L186.985 11.8669C186.985 11.8669 181.201 11.2801 178.057 12.925C175.418 14.3361 173.339 16.0996 170.364 19.5083C168.847 21.2131 166.152 25.3861 166.152 25.3861L164.468 11.8669H155.426L158.514 32.9678L153.123 49.073H163.794C163.794 49.073 166.152 42.0192 166.376 41.3152C167.106 39.0232 169.745 33.2043 171.935 30.2059C175.81 24.9159 180.527 19.8023 184.401 19.9199Z" fill="#FFF200"/>
<path d="M61.1991 12.2197L53.7299 35.6137C53.3918 36.5534 53.0548 37.7877 52.4379 38.8458C51.8773 39.8453 51.0341 40.6083 49.6302 40.6083C48.3382 40.6083 48.0019 39.8453 48.0019 38.7872C48.0584 37.7877 48.5081 36.5531 48.8444 35.5537L56.3133 12.2197H46.711L38.9058 36.4945C37.5019 40.9613 35.5364 49.954 46.6545 49.954C57.7737 49.954 61.5905 40.9615 63.0519 36.4945L70.8017 12.2197H61.1991Z" fill="white"/>
<path d="M117.971 49.073L136.952 11.9258H127.63L117.24 34.967C117.689 32.2627 121.058 11.9258 121.058 11.9258H112.803C112.803 11.9258 103.257 32.3802 102.134 35.1432L106.346 11.9258H96.8557L92.9239 49.073H102.246L112.522 25.8567C112.017 28.3837 108.648 49.073 108.648 49.073H117.971ZM137.738 35.4959H142.567L144.701 21.9177L137.738 35.4959ZM141.05 11.9258H154.135L149.923 49.132H139.814L141.106 43.1362H133.975L130.886 49.0141H121.958L141.05 11.9258Z" fill="#FFF200"/>
<path d="M11.8387 52.7172L4.53763 40.3158L17.3977 34.7909L15.9928 39.4342C17.5666 40.4912 19.4195 40.7853 21.1604 40.6677C22.676 40.5499 24.4731 39.8455 25.0348 38.4934C25.3718 37.6115 24.9218 35.6139 23.6874 34.3206C22.2835 32.792 21.2731 30.7933 20.7107 29.2657C20.0936 27.5022 19.8682 24.2108 20.319 22.2122C21.0475 19.1562 24.8114 11.0453 35.3679 11.5745C37.6705 11.6324 41.0397 12.867 42.7234 13.984L38.7925 21.8008C34.3565 19.0389 31.6617 20.0384 30.65 22.5651C29.6407 25.0933 31.3252 27.5025 32.8964 29.4425C34.8617 31.793 36.4345 34.3212 36.4345 37.3185C36.4345 44.3131 29.2464 49.9548 20.4298 49.9548C17.791 49.9548 15.3205 49.4269 13.1861 48.5448L11.8387 52.7172ZM62.1529 49.1907H75.9104C80.7399 49.1907 88.6013 47.4859 91.0166 39.8455C92.4205 35.4374 89.8925 31.2633 87.3104 29.8536C90.0617 28.7952 92.7575 25.2103 93.5438 22.3884C95.7334 14.3364 91.1295 12.0437 85.7373 12.0437H74.0013L62.1529 49.1907ZM76.8655 34.379C80.2347 34.2028 82.2567 35.5539 81.6951 37.9644C81.1899 40.3158 79.3363 41.138 77.3145 41.138H74.6757L76.8655 34.379ZM78.6627 26.5611L80.7961 20.0965H82.4233C83.7707 20.0965 86.2422 20.3316 85.0627 23.5051C84.0534 26.0333 81.4692 26.5611 80.0099 26.5611H78.6627Z" fill="white"/>
<path d="M168.903 47.4859V46.8391H169.295C169.521 46.8391 169.744 46.898 169.744 47.1329C169.744 47.4859 169.52 47.4859 169.295 47.4859H168.903ZM168.903 47.7796H169.24L169.8 48.6618H170.138L169.577 47.7796C169.858 47.721 170.082 47.5448 170.082 47.1921C170.082 46.7218 169.858 46.5453 169.353 46.5453H168.623V48.6615H168.904V47.7794H168.903V47.7796ZM169.296 49.4848C170.25 49.4848 171.037 48.6618 171.037 47.6034C171.037 46.5456 170.25 45.7812 169.296 45.7812C168.286 45.7812 167.499 46.5456 167.499 47.6034C167.499 48.6618 168.285 49.4848 169.296 49.4848ZM167.836 47.6034C167.836 46.7218 168.454 46.0753 169.296 46.0753C170.082 46.0753 170.7 46.7221 170.7 47.6034C170.7 48.4856 170.082 49.1907 169.296 49.1907C168.454 49.1907 167.836 48.4853 167.836 47.6034Z" fill="#FFF200"/>
</svg>
